<?xml version="1.0" encoding="utf-8"?>
<!-- Generator: Adobe Illustrator 16.0.3, SVG Export Plug-In . SVG Version: 6.00 Build 0)  -->
<!DOCTYPE svg PUBLIC "-//W3C//DTD SVG 1.1//EN" "http://www.w3.org/Graphics/SVG/1.1/DTD/svg11.dtd">
<svg version="1.1" id="Capa_1" xmlns="http://www.w3.org/2000/svg" xmlns:xlink="http://www.w3.org/1999/xlink" x="0px" y="0px"
	 width="600px" height="400px" viewBox="0 0 600 400" enable-background="new 0 0 600 400" xml:space="preserve">
<rect x="-856.902" y="687.559" stroke="#000000" stroke-miterlimit="10" width="2257.612" height="1208.882"/>
<g>
	<defs>
		<rect id="SVGID_1_" x="-82" y="-182" width="764" height="764"/>
	</defs>
	<clipPath id="SVGID_2_">
		<use xlink:href="#SVGID_1_"  overflow="visible"/>
	</clipPath>
	<path clip-path="url(#SVGID_2_)" fill="#FFFFFF" d="M31.702,122.744c0-0.688,0.229-1.279,0.688-1.776
		c0.459-0.496,1.089-0.745,1.892-0.745h16.96c0.649,0,1.241,0.229,1.776,0.688c0.535,0.458,0.821,1.069,0.859,1.833v62.342h31.515
		c0.688,0,1.279,0.229,1.776,0.688c0.496,0.458,0.745,1.089,0.745,1.891v15.069c0,0.65-0.22,1.242-0.659,1.776
		c-0.44,0.535-1.061,0.822-1.862,0.859H34.224c-1.681,0-2.521-0.839-2.521-2.521V122.744z"/>
	<path clip-path="url(#SVGID_2_)" fill="#FFFFFF" d="M101.264,122.916c0-0.803,0.218-1.441,0.657-1.92
		c0.438-0.477,1.057-0.716,1.857-0.716h56.848c0.84,0,1.49,0.248,1.948,0.743s0.688,1.161,0.688,2v14.169
		c0,0.648-0.229,1.267-0.688,1.856c-0.458,0.591-1.127,0.886-2.005,0.886h-37.131v14.21h28.65c0.725,0,1.327,0.172,1.805,0.516
		c0.478,0.344,0.716,0.917,0.716,1.719v12.377c0,0.535-0.21,1.051-0.63,1.547c-0.421,0.497-1.032,0.745-1.834,0.745h-28.708v14.668
		h38.506c1.719,0,2.579,0.877,2.579,2.628v14.398c0,0.383-0.029,0.774-0.238,1.178c-0.496,0.958-1.156,1.45-2.569,1.45h-57.937
		c-0.762,0-1.372-0.2-1.829-0.603c-0.457-0.399-0.686-1.021-0.686-1.86V122.916z"/>
	<path clip-path="url(#SVGID_2_)" fill="#FFFFFF" d="M204.88,70.941c0.037-0.229,0.162-0.478,0.372-0.745
		c0.209-0.267,0.467-0.516,0.773-0.745c0.306-0.229,0.63-0.41,0.974-0.544c0.344-0.134,0.668-0.201,0.974-0.201h14.668
		c0.65,0,1.204,0.201,1.662,0.602c0.459,0.401,0.803,0.755,1.032,1.06l1.432,3.266l30.083,77.584
		c0.305,0.765,0.248,1.385-0.172,1.862c-0.421,0.478-1.146,0.716-2.177,0.716h-16.445c-0.879,0-1.557-0.162-2.034-0.487
		c-0.479-0.324-0.852-0.868-1.118-1.633c-0.765-1.948-1.51-3.886-2.234-5.816c-0.727-1.929-1.453-3.868-2.178-5.816h-30.426
		c-0.727,1.948-1.461,3.887-2.206,5.816c-0.746,1.93-1.481,3.868-2.207,5.816c-0.497,1.414-1.471,2.12-2.922,2.12h-16.903
		c-0.727,0-1.328-0.19-1.805-0.573c-0.479-0.381-0.564-0.955-0.258-1.719L204.88,70.941z M215.309,95.466
		c-0.726,1.948-1.461,4.049-2.206,6.303c-0.745,2.254-1.481,4.526-2.207,6.819c-0.726,2.292-1.461,4.555-2.206,6.79
		c-0.745,2.235-1.481,4.327-2.206,6.275h17.591L215.309,95.466z"/>
	<path clip-path="url(#SVGID_2_)" fill="#FFFFFF" d="M342.322,162.911c0,4.049-0.517,7.898-1.547,11.546
		c-1.031,3.648-2.503,7.048-4.412,10.2c-1.911,3.152-4.193,6.007-6.847,8.566c-2.656,2.56-5.598,4.737-8.825,6.532
		c-3.229,1.795-6.714,3.181-10.457,4.154c-3.744,0.974-7.621,1.461-11.632,1.461h-28.249c-0.688,0-1.299-0.151-1.833-0.458
		c-0.536-0.306-0.802-0.954-0.802-1.949v-80.047c0-0.803,0.219-1.452,0.659-1.949c0.439-0.496,1.098-0.745,1.977-0.745h28.249
		c4.011,0,7.879,0.497,11.604,1.49c3.724,0.994,7.2,2.407,10.429,4.24c3.228,1.834,6.178,4.03,8.853,6.589
		c2.673,2.561,4.956,5.425,6.847,8.596c1.892,3.171,3.361,6.589,4.413,10.256C341.797,155.061,342.322,158.9,342.322,162.911
		 M289.893,140.793v44.063h4.813c0.878,0,1.738-0.028,2.579-0.085c0.839-0.058,1.68-0.124,2.521-0.201
		c2.864-0.229,5.538-0.926,8.022-2.092c2.482-1.164,4.65-2.693,6.504-4.584c1.852-1.891,3.303-4.115,4.354-6.675
		c1.05-2.559,1.576-5.348,1.576-8.366c0-3.208-0.602-6.16-1.805-8.853c-1.204-2.693-2.837-5.023-4.899-6.991
		c-2.063-1.967-4.479-3.495-7.248-4.584c-2.771-1.088-5.721-1.633-8.854-1.633H289.893z"/>
	<path clip-path="url(#SVGID_2_)" fill="#FFFFFF" d="M357.278,122.916c0-0.803,0.218-1.441,0.656-1.92
		c0.438-0.477,1.058-0.716,1.858-0.716h56.847c0.84,0,1.491,0.248,1.949,0.743s0.688,1.161,0.688,2v14.169
		c0,0.648-0.229,1.267-0.688,1.856c-0.458,0.591-1.127,0.886-2.006,0.886h-37.13v14.21h28.648c0.727,0,1.327,0.172,1.806,0.516
		c0.478,0.344,0.717,0.917,0.717,1.719v12.377c0,0.535-0.21,1.051-0.631,1.547c-0.421,0.497-1.031,0.745-1.833,0.745h-28.707v14.668
		h38.505c1.719,0,2.578,0.877,2.578,2.628v14.398c0,0.383-0.151,0.724-0.458,1.028c-0.152,1.067-0.937,1.6-2.349,1.6h-57.937
		c-0.763,0-1.374-0.2-1.829-0.603c-0.458-0.399-0.686-1.021-0.686-1.86V122.916z"/>
	<path clip-path="url(#SVGID_2_)" fill="#FFFFFF" d="M434.746,122.916c0-0.803,0.208-1.442,0.63-1.92
		c0.42-0.477,1.051-0.716,1.892-0.716h37.016c3.934,0,7.621,0.736,11.058,2.207c3.438,1.471,6.437,3.466,8.997,5.987
		c2.558,2.521,4.574,5.473,6.045,8.853c1.47,3.381,2.206,6.982,2.206,10.801c0,2.599-0.354,5.071-1.061,7.421
		c-0.707,2.349-1.69,4.546-2.95,6.589c-1.261,2.043-2.761,3.896-4.498,5.558c-1.739,1.662-3.64,3.085-5.702,4.269l14.728,27.733
		c0.267,0.535,0.609,1.166,1.03,1.891c0.42,0.726,0.631,1.356,0.631,1.891c0,0.61-0.202,1.079-0.602,1.403
		c-0.402,0.326-0.946,0.487-1.633,0.487h-19.655c-0.649,0-1.231-0.19-1.746-0.572c-0.517-0.383-0.852-0.898-1.004-1.548
		l-13.924-26.186h-9.282v25.843c0,1.643-0.879,2.463-2.637,2.463h-17.017c-0.765,0-1.376-0.2-1.834-0.603
		c-0.459-0.399-0.688-1.021-0.688-1.86V122.916z M479.612,148.357c0-1.146-0.211-2.292-0.632-3.438
		c-0.42-1.146-1.012-2.197-1.775-3.151c-0.766-0.955-1.682-1.757-2.751-2.407c-1.069-0.649-2.254-1.069-3.553-1.261
		c-1.069-0.076-2.072-0.143-3.008-0.201c-0.938-0.058-1.957-0.086-3.065-0.086h-7.907v21.029h10.543
		c0.688,0,1.298-0.019,1.835-0.058c0.533-0.037,1.125-0.095,1.774-0.171c1.337-0.152,2.54-0.544,3.611-1.175
		c1.068-0.63,1.967-1.413,2.691-2.35c0.727-0.935,1.28-1.985,1.663-3.151C479.42,150.773,479.612,149.58,479.612,148.357"/>
	<path clip-path="url(#SVGID_2_)" fill="#FFFFFF" d="M37.724,269.547c0.649,0.535,1.479,1.251,2.493,2.148
		c1.011,0.897,2.167,1.785,3.466,2.664c1.948,1.299,3.876,2.311,5.788,3.038c1.909,0.726,3.915,1.088,6.017,1.088
		c1.948,0,3.581-0.22,4.899-0.658s2.358-1.021,3.123-1.747c0.764-0.725,1.308-1.563,1.633-2.519
		c0.324-0.954,0.487-1.967,0.487-3.034c0-1.183-0.449-2.242-1.346-3.177c-0.898-0.936-1.997-1.766-3.295-2.491
		c-1.299-0.726-2.655-1.345-4.068-1.861c-1.414-0.515-2.636-0.944-3.667-1.288c-4.584-1.602-8.596-3.328-12.033-5.181
		c-3.438-1.852-6.303-3.913-8.596-6.183c-2.292-2.271-4.01-4.771-5.157-7.501c-1.146-2.729-1.719-5.772-1.719-9.131
		c0-3.55,0.716-6.775,2.149-9.677c1.433-2.9,3.476-5.381,6.131-7.442c2.655-2.061,5.854-3.654,9.598-4.779
		c3.743-1.127,7.926-1.69,12.549-1.69c3.475,0,6.809,0.394,9.999,1.174c3.189,0.785,6.332,2.035,9.426,3.754
		c1.298,0.766,2.53,1.557,3.696,2.379c1.165,0.821,2.186,1.613,3.065,2.377c0.878,0.765,1.576,1.49,2.091,2.179
		c0.516,0.686,0.774,1.279,0.774,1.775c0,0.497-0.125,0.956-0.373,1.375c-0.25,0.422-0.622,0.898-1.118,1.433l-8.767,9.34
		c-0.65,0.649-1.299,0.974-1.949,0.974c-0.535,0-1.022-0.151-1.461-0.458c-0.439-0.306-0.927-0.688-1.461-1.146l-0.516-0.458
		c-0.765-0.649-1.614-1.318-2.55-2.006c-0.937-0.687-1.939-1.308-3.008-1.861c-1.069-0.554-2.197-1.012-3.38-1.376
		c-1.185-0.362-2.388-0.544-3.61-0.544c-1.261,0-2.445,0.106-3.553,0.315c-1.108,0.211-2.082,0.544-2.922,1.002
		c-0.841,0.458-1.51,1.061-2.006,1.805c-0.497,0.746-0.745,1.654-0.745,2.723c0,1.069,0.266,1.996,0.802,2.779
		c0.534,0.783,1.336,1.51,2.406,2.177c1.069,0.669,2.396,1.299,3.982,1.891c1.584,0.594,3.428,1.232,5.53,1.921
		c4.048,1.338,7.783,2.74,11.202,4.211c3.418,1.472,6.369,3.209,8.853,5.214c2.482,2.005,4.421,4.403,5.816,7.191
		c1.394,2.789,2.092,6.17,2.092,10.143c0,4.202-0.86,8.013-2.579,11.431c-1.719,3.42-4.079,6.332-7.077,8.739
		c-3,2.405-6.523,4.269-10.572,5.587c-4.05,1.317-8.405,1.977-13.064,1.977c-4.394,0-8.709-0.787-12.95-2.356
		c-4.24-1.57-8.194-3.678-11.861-6.322c-1.528-1.11-2.817-2.203-3.868-3.275c-1.052-1.073-1.882-1.934-2.492-2.585l-0.172-0.173
		c-0.039-0.077-0.077-0.124-0.114-0.145c-0.039-0.018-0.078-0.047-0.115-0.086c-0.039-0.075-0.077-0.123-0.114-0.144
		c-0.039-0.019-0.077-0.048-0.115-0.086c-0.879-0.958-1.317-1.725-1.317-2.299c0-0.65,0.438-1.38,1.317-2.184l9.913-9.455
		c0.802-0.573,1.451-0.859,1.949-0.859c0.343,0,0.706,0.115,1.088,0.344C36.73,268.744,37.188,269.088,37.724,269.547"/>
	<path clip-path="url(#SVGID_2_)" fill="#FFFFFF" d="M343.205,214.475c0-0.763,0.259-1.371,0.774-1.83
		c0.516-0.456,1.155-0.686,1.92-0.686h61.654c0.688,0,1.299,0.21,1.833,0.63c0.535,0.419,0.84,1.047,0.917,1.886v14.225
		c0,0.687-0.239,1.343-0.716,1.972c-0.479,0.628-1.157,0.942-2.034,0.942h-19.77v62.741c0,0.688-0.247,1.31-0.742,1.864
		c-0.496,0.555-1.143,0.831-1.942,0.831h-16.803c-0.649,0-1.258-0.257-1.829-0.773c-0.573-0.516-0.857-1.157-0.857-1.922v-62.741
		h-19.711c-0.765,0-1.404-0.247-1.92-0.742c-0.516-0.494-0.774-1.219-0.774-2.172V214.475z"/>
	<path clip-path="url(#SVGID_2_)" fill="#3457A5" d="M444.912,263.115c0,2.829,0.392,5.229,1.176,7.197
		c0.784,1.97,1.818,3.575,3.101,4.818s2.775,2.15,4.479,2.723c1.704,0.574,3.475,0.86,5.312,0.86c1.914,0,3.723-0.333,5.426-1.003
		c1.702-0.669,3.197-1.663,4.478-2.983c1.283-1.318,2.297-2.952,3.044-4.902s1.121-4.187,1.121-6.71v-48.632
		c0-0.688,0.237-1.281,0.715-1.778s1.118-0.746,1.92-0.746h16.731c0.878,0,1.566,0.259,2.063,0.773
		c0.496,0.517,0.745,1.1,0.745,1.749v48.304c0,6.685-0.983,12.301-2.95,16.847c-1.969,4.545-4.613,8.203-7.937,10.972
		c-3.323,2.771-7.173,4.757-11.546,5.959c-4.374,1.204-8.968,1.806-13.78,1.806c-4.813,0-9.418-0.621-13.81-1.862
		c-4.394-1.24-8.251-3.266-11.574-6.073c-3.324-2.808-5.969-6.476-7.937-11.002s-2.951-10.075-2.951-16.646v-48.304
		c0-0.649,0.218-1.232,0.657-1.749c0.438-0.515,0.98-0.773,1.629-0.773h17.146c0.571,0,1.172,0.24,1.8,0.718
		c0.629,0.479,0.944,1.08,0.944,1.807V263.115z"/>
	<path clip-path="url(#SVGID_2_)" fill="#3457A5" d="M510.749,214.596c0-0.803,0.209-1.441,0.63-1.919
		c0.42-0.478,1.051-0.718,1.891-0.718h36.615c2.636,0,5.118,0.364,7.448,1.09s4.47,1.729,6.417,3.007
		c1.95,1.282,3.705,2.81,5.273,4.585c1.564,1.776,2.893,3.696,3.982,5.759c1.088,2.063,1.919,4.23,2.491,6.504
		c0.573,2.272,0.859,4.575,0.859,6.904c0,3.438-0.62,6.801-1.861,10.084c-1.242,3.286-3.009,6.209-5.3,8.768
		c-2.293,2.56-5.043,4.633-8.252,6.218s-6.762,2.396-10.658,2.435h-17.361v27.275c0,1.643-0.879,2.463-2.636,2.463H513.27
		c-0.765,0-1.375-0.2-1.834-0.601c-0.458-0.401-0.687-1.022-0.687-1.862V214.596z M553.896,239.693c0-1.146-0.201-2.292-0.602-3.438
		c-0.401-1.146-0.983-2.167-1.748-3.065c-0.765-0.897-1.69-1.633-2.779-2.206c-1.088-0.572-2.32-0.858-3.695-0.858h-12.147v19.138
		h12.147c1.375,0,2.616-0.276,3.725-0.832c1.106-0.553,2.034-1.269,2.778-2.148c0.746-0.878,1.318-1.891,1.72-3.037
		C553.694,242.1,553.896,240.916,553.896,239.693"/>
	<path clip-path="url(#SVGID_2_)" fill="#FFFFFF" d="M205.659,151.823h7.053l2.011,13.494l2.011-13.494h7.188l28.275,51.955
		l-28.678-27.848l-4.148,80.682c0,0,16.025,3.563,19.942,18.654c0,0,0.531-3.793-0.781-6.127c0,0,12.89-4.532,18.33,7.644
		c0,0,0.093-3.026-0.729-4.433c0,0,18.763,2.463,28.027,25.096c0,0-3.752,3.752-3.987,5.512c0,0,5.142-6.166,14.934-6.166
		c9.793,0,22.231,2.223,24.547,20.639c0,0-3.131,2.861-3.688,4.869c0,0,3.526-4.548,12.001-4.658
		c8.476-0.112,13.155,5.261,14.522,9.155c1.041,2.962,1.132,7.415,1.132,7.415s1.476-2.579,1.394-4.785c0,0,5.786-1.341,6.767,5.355
		l28.851,4.508H31.669l28.86-7.334c0,0-2.322-3.354,1.166-6.634c1.726-1.623,5.448-1.941,6.23-1.535c0,0,3.689,3.558,5.878,3.87
		c0,0-5.79-2.752-5.915-11.071c-0.125-8.319,6.341-14.228,13.48-14.514c10.06-0.401,12.474,5.634,12.474,5.634
		s-0.905-4.124-4.842-5.572c0,0,1.523-9.82,12.751-12.06c11.245-2.243,20.36,1.135,25.39,13.105c0,0-0.059-3.337-2.012-7.243
		c0,0,4.225-18.813,28.049-18.231c0,0-0.491,4.656,1.608,7.923c0,0-2.584-7.923,7.505-18.989
		c10.091-11.067,28.927-14.493,44.454-12.133l4.611,23.475l-5.996-102.17l-27.573,28.685L205.659,151.823z"/>
	<polygon clip-path="url(#SVGID_2_)" fill="#FFFFFF" points="203.201,182.183 203.201,201.57 185.364,239.439 199.111,186.429 	"/>
	<polygon clip-path="url(#SVGID_2_)" fill="#FFFFFF" points="225.833,182.183 225.833,201.57 243.668,239.439 229.623,186.119 	"/>
	<path clip-path="url(#SVGID_2_)" fill="#FFFFFF" d="M142.124,273.396c-11.753,1.355-19.246,14.524-19.246,14.524l-2.93-1.878
		v-7.437v-46.993h-19.711c-0.765,0-1.404-0.247-1.919-0.742c-0.516-0.494-0.773-1.219-0.773-2.172v-14.225
		c0-0.763,0.258-1.371,0.773-1.83c0.516-0.455,1.155-0.686,1.919-0.686h61.655c0.688,0,1.298,0.21,1.833,0.63
		c0.535,0.419,0.84,1.047,0.917,1.886v14.225c0,0.687-0.239,1.343-0.716,1.972c-0.478,0.628-1.156,0.942-2.034,0.942h-19.769v39.711
		V273.396z"/>
	<polygon clip-path="url(#SVGID_2_)" fill="#FFFF00" points="207.282,151.823 190.069,187.432 206.832,169.77 214.818,204.644 
		221.927,169.77 240.692,188.355 222.356,151.823 216.734,151.823 214.723,165.316 212.712,151.823 	"/>
	<polygon clip-path="url(#SVGID_2_)" fill="#FF0000" points="212.712,151.823 210.149,151.823 204.786,165.859 210.974,159.613 
		214.687,171.694 218.223,159.554 224.408,165.683 219.225,151.823 216.734,151.823 214.723,165.316 	"/>
	<polygon clip-path="url(#SVGID_2_)" fill="#FFFFFF" points="212.712,151.823 216.734,151.823 214.723,165.316 	"/>
	<path clip-path="url(#SVGID_2_)" fill="#FFFFFF" d="M337.113,293.269c-0.42-0.725-0.764-1.355-1.03-1.891l-14.728-27.733
		c2.064-1.184,3.964-2.607,5.702-4.269c1.738-1.662,3.237-3.514,4.498-5.559c1.26-2.043,2.244-4.24,2.951-6.59
		c0.707-2.349,1.06-4.821,1.06-7.42c0-3.819-0.735-7.42-2.205-10.802c-1.472-3.381-3.487-6.332-6.046-8.853
		c-2.56-2.521-5.558-4.516-8.996-5.988c-3.438-1.469-7.124-2.206-11.059-2.206h-37.016c-0.841,0-1.471,0.24-1.891,0.718
		c-0.42,0.478-0.63,1.116-0.63,1.919v53.528v1.463c0,0,14.015,6.748,20.539,20.063l0.073,0.151c0,0,1.122-0.441,1.563-0.498v-0.375
		v-20.184h9.283l13.28,24.976l0.105,0.199c0,0,2.836,0.589,4.461,3.131h0.218h18.263c0.688,0,1.232-0.161,1.634-0.487
		c0.4-0.323,0.601-0.791,0.601-1.403C337.743,294.625,337.534,293.994,337.113,293.269 M312.017,243.617
		c-0.383,1.167-0.936,2.217-1.662,3.152c-0.726,0.937-1.623,1.72-2.692,2.35c-1.07,0.631-2.274,1.021-3.61,1.175
		c-0.649,0.077-1.242,0.134-1.776,0.172c-0.535,0.038-1.146,0.056-1.834,0.056h-10.542v-21.028h7.907
		c1.107,0,2.129,0.029,3.065,0.086c0.936,0.058,1.938,0.125,3.008,0.201c1.299,0.191,2.483,0.611,3.553,1.261
		s1.985,1.452,2.75,2.407c0.764,0.954,1.356,2.004,1.776,3.15s0.631,2.292,0.631,3.438
		C312.59,241.26,312.397,242.453,312.017,243.617"/>
</g>
</svg>
